<?xml version="1.0" encoding="UTF-8"?>
<!DOCTYPE svg PUBLIC "-//W3C//DTD SVG 1.1//EN" "http://www.w3.org/Graphics/SVG/1.1/DTD/svg11.dtd">
<svg version="1.1" xmlns="http://www.w3.org/2000/svg" xmlns:xlink="http://www.w3.org/1999/xlink" x="0" y="0" width="50" height="50" viewBox="0, 0, 50, 50">
  <g id="Layer_1">
    <path d="M25,45 C13.954,45 5,36.046 5,25 C5,13.954 13.954,5 25,5 C36.046,5 45,13.954 45,25 C45,36.046 36.046,45 25,45 z" fill="#FFEB3B"/>
    <path d="M19.728,30.667 C22.094,30.667 24.012,32.363 24.012,34.456 L23.989,34.651 C26.868,35.18 32.315,35.857 32.743,39.728 C32.743,42.64 27.58,45 21.211,45 C18.302,44.866 18.18,44.972 14.763,44.1 C14.197,43.955 13.684,43.652 13.145,43.428 C11.542,44.784 9.136,44.905 7.146,45 C3.199,45 0,43.488 0,41.623 C0.362,39.467 2.753,38.901 4.576,38.538 C3.542,38.064 3.088,37.083 2.924,36.021 C2.924,33.974 5.469,32.314 8.608,32.314 C9.456,32.38 9.154,32.324 9.524,32.398 C10.686,31.661 12.05,31.555 13.385,31.491 C14.439,31.516 15.539,31.587 16.505,32.046 C17.329,31.051 18.505,30.776 19.728,30.667 z" fill="#BDBDBD"/>
    <path d="M36.514,10.039 C38.737,10.039 40.539,11.579 40.539,13.48 L40.518,13.656 C43.223,14.137 48.341,14.752 48.743,18.267 C48.743,20.911 43.892,23.054 37.907,23.054 C35.174,22.932 35.06,23.028 31.849,22.236 C31.317,22.105 30.835,21.83 30.328,21.626 C28.822,22.858 26.561,22.968 24.691,23.054 C20.983,23.054 17.977,21.681 17.977,19.987 C18.317,18.029 20.564,17.516 22.277,17.187 C21.305,16.756 20.878,15.865 20.724,14.901 C20.724,13.042 23.115,11.535 26.065,11.535 C26.862,11.595 26.578,11.544 26.926,11.611 C28.018,10.942 29.3,10.845 30.554,10.787 C31.545,10.81 32.578,10.874 33.486,11.291 C34.26,10.387 35.365,10.138 36.514,10.039 z" fill="#BDBDBD"/>
  </g>
</svg>
