<?xml version="1.0" encoding="UTF-8"?>
<!DOCTYPE svg PUBLIC "-//W3C//DTD SVG 1.1//EN" "http://www.w3.org/Graphics/SVG/1.1/DTD/svg11.dtd">
<svg version="1.1" xmlns="http://www.w3.org/2000/svg" xmlns:xlink="http://www.w3.org/1999/xlink" x="0" y="0" width="50" height="50" viewBox="0, 0, 50, 50">
  <g id="Layer_1">
    <g>
      <path d="M23.707,11.671 C30.685,11.563 37.042,13.889 42.255,18.452 C47.896,23.698 50.149,30.914 48.16,37.374 L43.971,36.093 C44.33,35.363 44.204,35.765 44.309,34.876 C44.309,32.965 42.503,31.416 40.275,31.416 C38.342,31.543 37.352,32.081 36.503,33.811 L34.397,33.167 C34.774,32.397 34.647,32.814 34.753,31.91 C34.753,29.999 32.947,28.45 30.719,28.45 C28.732,28.59 27.797,29.114 26.929,30.884 L26.789,30.841 L24.314,30.098 C24.56,29.597 24.444,29.914 24.539,29.109 C24.539,27.199 22.733,25.65 20.505,25.65 C18.847,25.712 17.57,26.341 16.829,27.849 L14.188,27.056 C14.464,26.493 14.346,26.833 14.443,26.006 C14.443,24.095 13.212,23.04 10.984,23.04 C9.232,23.127 7.483,23.218 6.703,24.808 L5.387,24.412 C7.331,17.94 13.222,13.191 20.833,11.96 L23.707,11.671 z" fill="#FFEB3B"/>
      <path d="M23.707,11.671 C30.685,11.563 37.042,13.889 42.255,18.452 C47.896,23.698 50.149,30.914 48.16,37.374 L43.971,36.093 C44.33,35.363 44.204,35.765 44.309,34.876 C44.309,32.965 42.503,31.416 40.275,31.416 C38.342,31.543 37.352,32.081 36.503,33.811 L34.397,33.167 C34.774,32.397 34.647,32.814 34.753,31.91 C34.753,29.999 32.947,28.45 30.719,28.45 C28.732,28.59 27.797,29.114 26.929,30.884 L26.789,30.841 L24.314,30.098 C24.56,29.597 24.444,29.914 24.539,29.109 C24.539,27.199 22.733,25.65 20.505,25.65 C18.847,25.712 17.57,26.341 16.829,27.849 L14.188,27.056 C14.464,26.493 14.346,26.833 14.443,26.006 C14.443,24.095 13.212,23.04 10.984,23.04 C9.232,23.127 7.483,23.218 6.703,24.808 L5.387,24.412 C7.331,17.94 13.222,13.191 20.833,11.96 L23.707,11.671 z" fill-opacity="0" stroke="#607D8B" stroke-width="1"/>
    </g>
    <path d="M14.443,26.006 C14.443,18.545 21.229,12.496 29.6,12.496" fill-opacity="0" stroke="#607D8B" stroke-width="1"/>
    <path d="M25.152,29.96 C25.152,20.315 27.512,12.496 30.424,12.496" fill-opacity="0" stroke="#607D8B" stroke-width="1"/>
    <path d="M30.424,12.496 C32.815,12.496 37.838,22.217 34.397,33.167" fill-opacity="0" stroke="#607D8B" stroke-width="1"/>
    <path d="M31.742,12.496 C38.314,12.496 43.971,23.061 43.971,36.093" fill-opacity="0" stroke="#607D8B" stroke-width="1"/>
    <path d="M2.129,-0.488 L2.129,-0.488" fill-opacity="0" stroke="#607D8B" stroke-width="1"/>
    <path d="M30.424,29.96 L30.424,29.96" fill-opacity="0" stroke="#607D8B" stroke-width="1"/>
    <path d="M30.719,28.45 C30.719,40.082 22.99,49.512 13.455,49.512" fill-opacity="0" stroke="#607D8B" stroke-width="1"/>
  </g>
</svg>
